<svg width="200" height="201" viewBox="0 0 200 201" fill="none" xmlns="http://www.w3.org/2000/svg">
<path d="M100 0.587402C126.522 0.587402 151.957 11.1231 170.711 29.8767C189.464 48.6304 200 74.0657 200 100.587C200 113.72 197.413 126.723 192.388 138.856C187.362 150.988 179.997 162.012 170.711 171.298C161.425 180.584 150.401 187.95 138.268 192.975C126.136 198.001 113.132 200.587 100 200.587C73.4783 200.587 48.043 190.052 29.2893 171.298C10.5357 152.544 0 127.109 0 100.587C0 74.0657 10.5357 48.6304 29.2893 29.8767C48.043 11.1231 73.4783 0.587402 100 0.587402V0.587402ZM100 20.5874C59.2 20.5874 25.5 51.0874 20.6 90.5874H61.3C65.7 73.2874 81.4 60.5874 100 60.5874C118.6 60.5874 134.3 73.2874 138.7 90.5874H179.4C174.5 51.0874 140.8 20.5874 100 20.5874V20.5874ZM100 180.587C140.8 180.587 174.5 150.087 179.4 110.587H138.7C134.3 127.887 118.6 140.587 100 140.587C81.4 140.587 65.7 127.887 61.3 110.587H20.6C25.5 150.087 59.2 180.587 100 180.587ZM100 80.5874C94.6957 80.5874 89.6086 82.6945 85.8579 86.4453C82.1071 90.196 80 95.2831 80 100.587C80 105.892 82.1071 110.979 85.8579 114.73C89.6086 118.48 94.6957 120.587 100 120.587C105.304 120.587 110.391 118.48 114.142 114.73C117.893 110.979 120 105.892 120 100.587C120 95.2831 117.893 90.196 114.142 86.4453C110.391 82.6945 105.304 80.5874 100 80.5874V80.5874Z" fill="#DE3838" fill-opacity="0.1"/>
</svg>
