<svg width="199" height="232" viewBox="0 0 199 232" fill="none" xmlns="http://www.w3.org/2000/svg">
<path d="M157.5 -83.4125C199.272 -83.4125 239.332 -66.8188 268.869 -37.2819C298.406 -7.74489 315 32.3159 315 74.0874C315 94.7706 310.926 115.251 303.011 134.36C295.096 153.469 283.495 170.832 268.869 185.457C254.244 200.082 236.881 211.683 217.773 219.598C198.664 227.514 178.183 231.587 157.5 231.587C115.728 231.587 75.6676 214.994 46.1307 185.457C16.5937 155.92 0 115.859 0 74.0874C0 32.3159 16.5937 -7.74489 46.1307 -37.2819C75.6676 -66.8188 115.728 -83.4125 157.5 -83.4125ZM157.5 -51.9125C93.24 -51.9125 40.1625 -3.87505 32.445 58.3374H96.5475C103.477 31.09 128.205 11.0875 157.5 11.0875C186.795 11.0875 211.522 31.09 218.452 58.3374H282.555C274.837 -3.87505 221.76 -51.9125 157.5 -51.9125ZM157.5 200.087C221.76 200.087 274.837 152.05 282.555 89.8374H218.452C211.522 117.085 186.795 137.087 157.5 137.087C128.205 137.087 103.477 117.085 96.5475 89.8374H32.445C40.1625 152.05 93.24 200.087 157.5 200.087ZM157.5 42.5874C149.146 42.5874 141.134 45.9062 135.226 51.8136C129.319 57.721 126 65.7331 126 74.0874C126 82.4418 129.319 90.4539 135.226 96.3613C141.134 102.269 149.146 105.587 157.5 105.587C165.854 105.587 173.866 102.269 179.774 96.3613C185.681 90.4539 189 82.4418 189 74.0874C189 65.7331 185.681 57.721 179.774 51.8136C173.866 45.9062 165.854 42.5874 157.5 42.5874Z" fill="#DE3838" fill-opacity="0.1"/>
</svg>
