<svg width="315" height="316" viewBox="0 0 315 316" fill="none" xmlns="http://www.w3.org/2000/svg">
<path d="M157.5 0.587402C199.272 0.587402 239.332 17.1811 268.869 46.7181C298.406 76.2551 315 116.316 315 158.087C315 178.771 310.926 199.251 303.011 218.36C295.096 237.469 283.495 254.831 268.869 269.457C254.244 284.082 236.881 295.683 217.773 303.598C198.664 311.514 178.183 315.587 157.5 315.587C115.728 315.587 75.6677 298.994 46.1307 269.457C16.5937 239.92 0 199.859 0 158.087C0 116.316 16.5937 76.2551 46.1307 46.7181C75.6677 17.1811 115.728 0.587402 157.5 0.587402V0.587402ZM157.5 32.0874C93.24 32.0874 40.1625 80.1249 32.445 142.337H96.5475C103.477 115.09 128.205 95.0874 157.5 95.0874C186.795 95.0874 211.522 115.09 218.452 142.337H282.555C274.837 80.1249 221.76 32.0874 157.5 32.0874V32.0874ZM157.5 284.087C221.76 284.087 274.837 236.05 282.555 173.837H218.452C211.522 201.085 186.795 221.087 157.5 221.087C128.205 221.087 103.477 201.085 96.5475 173.837H32.445C40.1625 236.05 93.24 284.087 157.5 284.087ZM157.5 126.587C149.146 126.587 141.134 129.906 135.226 135.814C129.319 141.721 126 149.733 126 158.087C126 166.442 129.319 174.454 135.226 180.361C141.134 186.269 149.146 189.587 157.5 189.587C165.854 189.587 173.866 186.269 179.774 180.361C185.681 174.454 189 166.442 189 158.087C189 149.733 185.681 141.721 179.774 135.814C173.866 129.906 165.854 126.587 157.5 126.587V126.587Z" fill="#DE3838" fill-opacity="0.1"/>
</svg>
